<svg xmlns="http://www.w3.org/2000/svg" viewBox="0 0 512 512" role="img" aria-labelledby="title desc">
  <title id="title">PyRadio SDR icon</title>
  <desc id="desc">A modern classic tabletop radio with amber display, metallic controls, and speaker grille.</desc>
  <defs>
    <linearGradient id="bg" x1="0" x2="0" y1="0" y2="1">
      <stop offset="0%" stop-color="#3b3d49"/>
      <stop offset="45%" stop-color="#2a2c36"/>
      <stop offset="100%" stop-color="#181a22"/>
    </linearGradient>
    <linearGradient id="face" x1="0" x2="1" y1="0" y2="1">
      <stop offset="0%" stop-color="#4b4e5f"/>
      <stop offset="60%" stop-color="#262934"/>
      <stop offset="100%" stop-color="#161821"/>
    </linearGradient>
    <linearGradient id="display" x1="0" x2="0" y1="0" y2="1">
      <stop offset="0%" stop-color="#083036"/>
      <stop offset="50%" stop-color="#041b21"/>
      <stop offset="100%" stop-color="#05161b"/>
    </linearGradient>
    <linearGradient id="amber" x1="0" x2="1" y1="0" y2="0">
      <stop offset="0%" stop-color="#ffcc72"/>
      <stop offset="50%" stop-color="#ffb547"/>
      <stop offset="100%" stop-color="#ff8f21"/>
    </linearGradient>
    <radialGradient id="knob" cx="35%" cy="30%" r="75%">
      <stop offset="0%" stop-color="#d8d9de"/>
      <stop offset="35%" stop-color="#8e92a2"/>
      <stop offset="70%" stop-color="#5e6170"/>
      <stop offset="100%" stop-color="#2b2d38"/>
    </radialGradient>
    <radialGradient id="glow" cx="50%" cy="50%" r="65%">
      <stop offset="0%" stop-color="#ffbb43" stop-opacity="0.9"/>
      <stop offset="60%" stop-color="#ff9d27" stop-opacity="0.35"/>
      <stop offset="100%" stop-color="#ff9d27" stop-opacity="0"/>
    </radialGradient>
    <filter id="shadow" x="-20%" y="-20%" width="140%" height="140%">
      <feDropShadow dx="0" dy="16" stdDeviation="18" flood-color="#000000" flood-opacity="0.35"/>
    </filter>
  </defs>

  <rect width="512" height="512" rx="96" fill="#090b10"/>
  <g filter="url(#shadow)">
    <rect x="58" y="108" width="396" height="286" rx="42" fill="url(#bg)"/>
    <rect x="72" y="122" width="368" height="258" rx="34" fill="url(#face)" stroke="#5d6273" stroke-opacity="0.28"/>
  </g>

  <rect x="108" y="152" width="196" height="92" rx="18" fill="url(#display)" stroke="#4e6871" stroke-opacity="0.5"/>
  <rect x="120" y="164" width="172" height="22" rx="11" fill="#ffffff" fill-opacity="0.06"/>
  <rect x="128" y="168" width="156" height="60" rx="14" fill="url(#glow)"/>
  <text x="206" y="209" text-anchor="middle" font-family="Consolas, 'Courier New', monospace" font-size="40" font-weight="700" fill="url(#amber)">101.7</text>
  <text x="267" y="209" font-family="Consolas, 'Courier New', monospace" font-size="18" font-weight="700" fill="#ffb95d">FM</text>
  <text x="206" y="231" text-anchor="middle" font-family="Consolas, 'Courier New', monospace" font-size="13" fill="#dfb56c">PYRADIO SDR</text>

  <g transform="translate(330 145)">
    <circle cx="54" cy="54" r="54" fill="#10131a" stroke="#676c7f" stroke-width="4"/>
    <circle cx="54" cy="54" r="46" fill="url(#knob)"/>
    <circle cx="54" cy="54" r="31" fill="#2a2d36" fill-opacity="0.9"/>
    <path d="M54 54 L80 28" stroke="#ffb547" stroke-width="6" stroke-linecap="round"/>
    <circle cx="54" cy="54" r="8" fill="#f6f7fb" fill-opacity="0.85"/>
  </g>

  <g transform="translate(98 268)">
    <rect x="0" y="0" width="316" height="82" rx="18" fill="#10131a" stroke="#5a6072" stroke-opacity="0.45"/>
    <g fill="#6a7082" fill-opacity="0.85">
      <circle cx="30" cy="24" r="6"/>
      <circle cx="58" cy="24" r="6"/>
      <circle cx="86" cy="24" r="6"/>
      <circle cx="114" cy="24" r="6"/>
      <circle cx="142" cy="24" r="6"/>
      <circle cx="170" cy="24" r="6"/>
      <circle cx="198" cy="24" r="6"/>
      <circle cx="226" cy="24" r="6"/>
      <circle cx="254" cy="24" r="6"/>
      <circle cx="282" cy="24" r="6"/>
      <circle cx="30" cy="54" r="6"/>
      <circle cx="58" cy="54" r="6"/>
      <circle cx="86" cy="54" r="6"/>
      <circle cx="114" cy="54" r="6"/>
      <circle cx="142" cy="54" r="6"/>
      <circle cx="170" cy="54" r="6"/>
      <circle cx="198" cy="54" r="6"/>
      <circle cx="226" cy="54" r="6"/>
      <circle cx="254" cy="54" r="6"/>
      <circle cx="282" cy="54" r="6"/>
    </g>
  </g>

  <g transform="translate(370 287)">
    <circle cx="0" cy="0" r="18" fill="#ffb547" fill-opacity="0.15"/>
    <circle cx="0" cy="0" r="10" fill="#ffb547"/>
    <circle cx="0" cy="0" r="4" fill="#fff7d4" fill-opacity="0.9"/>
  </g>

  <path d="M150 110 L380 70" stroke="#8a90a5" stroke-width="10" stroke-linecap="round" opacity="0.8"/>
  <path d="M150 110 L380 70" stroke="#f3f5ff" stroke-width="4" stroke-linecap="round" opacity="0.25"/>
  <rect x="76" y="124" width="360" height="28" rx="14" fill="#ffffff" fill-opacity="0.04"/>
</svg>